 <svg version="1.0" xmlns="http://www.w3.org/2000/svg" width="700.000000pt" height="284.000000pt" viewBox="0 0 700.000000 284.000000" preserveAspectRatio="xMidYMid meet">
<metadata>
Created by potrace 1.12, written by Peter Selinger 2001-2015
</metadata>
<g transform="translate(0.000000,284.000000) scale(0.100000,-0.100000)" fill="#000000" stroke="none">
<path d="M745 2627 c-3 -7 -4 -138 -3 -292 l3 -280 60 0 60 0 3 70 c2 48 8 75
20 88 22 24 335 232 423 280 36 21 69 34 72 30 4 -3 7 -170 7 -370 l0 -363
250 0 250 0 0 363 c0 200 3 367 7 370 12 12 267 -141 428 -257 l80 -57 5 -77
5 -77 60 0 60 0 0 290 0 290 -893 3 c-714 2 -894 0 -897 -11z"></path>
<path d="M2654 2626 c-3 -8 -4 -31 -2 -52 l3 -39 70 -5 70 -5 5 -365 5 -365
250 0 250 0 5 365 5 365 70 5 70 5 0 50 0 50 -398 3 c-334 2 -398 0 -403 -12z"></path>
<path d="M3809 2638 c0 -2 -1 -25 -2 -53 l-2 -50 84 -3 83 -3 -6 -47 c-4 -26
-15 -102 -26 -169 -11 -68 -29 -180 -40 -250 -11 -71 -25 -154 -31 -185 -18
-88 -18 -88 115 -88 63 0 117 4 120 8 3 5 8 98 12 208 10 265 11 270 58 169
96 -206 123 -263 151 -320 l30 -60 283 -3 c155 -1 282 2 282 6 0 5 -92 196
-205 426 l-205 416 -350 0 c-192 0 -350 -1 -351 -2z"></path>
<path d="M5390 2578 c-15 -35 -38 -88 -50 -118 -12 -30 -28 -68 -35 -85 -70
-152 -243 -571 -239 -577 3 -4 39 -8 80 -8 l75 0 35 78 c19 42 39 86 44 97 10
22 84 190 107 245 26 60 34 19 62 -335 l6 -80 255 0 255 0 -3 35 c-3 33 -10
87 -61 465 -11 83 -22 168 -23 190 l-3 40 55 3 c98 4 100 6 100 62 l0 50 -315
0 -316 0 -29 -62z"></path>
<path d="M270 1642 c-52 -1 -99 -7 -104 -12 -16 -16 14 -40 40 -34 44 11 54
-9 54 -112 0 -87 2 -94 20 -94 18 0 20 8 22 103 l3 102 40 0 c36 0 40 3 40 24
0 29 5 27 -115 23z"></path>
<path d="M606 1641 c-4 -5 16 -45 44 -88 40 -63 50 -86 50 -121 0 -39 2 -43
23 -40 19 3 23 11 27 53 4 35 19 71 48 119 41 67 44 94 9 80 -9 -3 -29 -28
-44 -55 -15 -28 -32 -48 -39 -47 -7 2 -27 25 -46 53 -32 48 -60 66 -72 46z"></path>
<path d="M1096 1642 c-3 -5 -6 -62 -7 -128 -1 -118 -1 -119 22 -119 22 0 23 3
20 56 -1 32 2 60 8 63 6 4 25 -16 43 -43 18 -28 38 -51 44 -51 7 0 26 23 44
50 18 28 36 50 41 50 5 0 9 -30 9 -66 0 -62 1 -65 23 -62 21 3 22 7 25 119 2
93 0 118 -12 128 -21 18 -29 10 -78 -74 -24 -41 -46 -75 -50 -75 -4 0 -23 28
-44 63 -54 91 -74 111 -88 89z"></path>
<path d="M1722 1638 c-52 -17 -92 -70 -92 -123 0 -38 6 -50 38 -85 37 -38 42
-40 96 -40 50 0 60 4 92 33 104 95 2 259 -134 215z m110 -70 c59 -76 -36 -175
-117 -122 -46 30 -41 124 7 144 35 15 90 4 110 -22z"></path>
<path d="M2243 1642 l-83 -3 0 -114 c0 -63 0 -118 0 -122 0 -5 11 -9 25 -11
23 -3 25 -1 25 41 0 51 8 57 77 57 37 0 44 3 41 18 -2 13 -15 18 -61 20 l-58
3 3 32 c3 32 3 32 68 37 56 4 65 8 65 24 0 23 2 23 -102 18z"></path>
<path d="M2611 1636 c-8 -9 -11 -52 -9 -127 3 -110 4 -114 26 -117 22 -3 22
-3 22 127 0 105 -3 131 -14 131 -7 0 -19 -6 -25 -14z"></path>
<path d="M2935 1638 c-3 -8 -4 -66 -3 -129 3 -110 4 -114 26 -117 l23 -3 -3
128 c-3 112 -5 128 -21 131 -9 2 -19 -3 -22 -10z"></path>
<path d="M4062 1638 c-8 -8 -12 -51 -12 -130 l0 -118 25 0 26 0 -3 127 c-3
124 -10 147 -36 121z"></path>
<path d="M4465 1641 l-80 -6 -3 -123 -3 -123 93 3 c75 2 93 6 93 18 0 12 -15
16 -67 18 -68 3 -68 3 -68 32 0 28 1 29 58 32 49 3 57 6 57 23 0 17 -8 20 -57
23 -57 3 -58 4 -58 32 l0 30 71 0 c67 0 70 1 67 22 -4 26 -3 26 -103 19z"></path>
<path d="M4806 1641 c-3 -5 7 -38 23 -72 16 -35 41 -90 55 -122 22 -51 29 -58
51 -55 22 3 32 18 75 117 55 125 59 144 33 139 -17 -3 -92 -137 -93 -165 0 -7
-4 -13 -9 -13 -14 0 -26 21 -51 85 -13 33 -30 68 -38 78 -16 18 -38 22 -46 8z"></path>
<path d="M5497 1644 c-4 -4 -7 -38 -7 -75 0 -37 -4 -70 -9 -73 -5 -3 -36 28
-70 69 -38 46 -70 75 -82 75 -18 0 -19 -8 -19 -126 0 -123 0 -125 22 -122 19
3 21 10 23 70 1 37 4 70 7 73 3 4 34 -28 68 -69 38 -48 69 -76 81 -76 19 0 19
6 17 127 -3 117 -10 148 -31 127z"></path>
<path d="M5814 1637 c-2 -7 -3 -65 -2 -128 l3 -114 25 0 25 0 3 114 c3 114 -4
141 -35 141 -7 0 -16 -6 -19 -13z"></path>
<path d="M6574 1637 c-2 -7 11 -49 31 -92 60 -136 69 -150 93 -153 19 -3 27 6
53 65 17 37 39 87 50 110 23 52 25 83 3 83 -10 0 -30 -32 -57 -90 -22 -49 -45
-90 -49 -90 -5 0 -13 12 -19 27 -47 125 -89 181 -105 140z"></path>
<path d="M3580 1515 c0 -125 0 -126 23 -123 17 2 23 11 25 34 3 30 5 32 60 37
45 5 62 12 80 32 29 34 28 77 -2 112 -22 25 -31 28 -105 31 l-81 4 0 -127z
m138 69 c46 -32 21 -74 -45 -74 l-43 0 0 38 c0 21 3 42 7 45 12 12 58 7 81 -9z"></path>
<path d="M6144 1627 c-2 -7 -3 -62 -2 -123 l3 -109 95 0 c78 0 95 3 95 15 0
11 -17 16 -70 20 -67 5 -70 6 -70 30 0 23 4 25 60 30 52 4 60 8 60 25 0 17 -8
21 -60 25 -56 5 -60 7 -60 30 0 24 4 25 65 30 51 4 66 9 68 23 3 15 -6 17 -88
17 -66 0 -92 -4 -96 -13z"></path>
<path d="M1394 1241 c-2 -2 -4 -117 -4 -256 0 -182 -3 -254 -12 -263 -8 -8
-49 -12 -120 -12 l-108 0 0 -55 0 -55 489 0 489 0 4 31 c3 17 3 42 0 55 -4 24
-6 24 -111 24 -70 0 -111 4 -119 12 -9 9 -12 82 -12 268 l0 255 -246 0 c-135
0 -248 -2 -250 -4z"></path>
<path d="M2804 1241 c-2 -2 -4 -120 -4 -262 0 -292 8 -269 -91 -269 l-60 0 3
-52 3 -53 400 0 400 0 0 50 0 50 -40 3 c-22 1 -55 5 -72 7 l-33 6 -2 261 -3
260 -248 2 c-137 0 -251 -1 -253 -3z"></path>
<path d="M3770 1235 c-4 -5 -10 -30 -13 -55 -5 -41 -12 -85 -37 -240 -5 -30
-14 -86 -20 -123 -15 -98 -20 -105 -83 -109 l-52 -3 0 -50 0 -50 333 -3 333
-2 -3 52 -3 53 -72 5 c-39 3 -74 8 -78 12 -4 3 -2 120 4 259 6 139 9 254 7
256 -9 10 -308 8 -316 -2z"></path>
<path d="M4621 1230 c0 -8 31 -76 67 -150 l67 -135 45 0 c44 0 45 1 70 51 14
28 34 70 44 95 10 24 27 62 37 83 35 73 40 71 -156 71 -149 0 -175 -2 -174
-15z"></path>
<path d="M5532 1232 c-2 -7 -2 -41 2 -75 21 -211 30 -320 31 -377 l0 -65 -75
-5 -75 -5 0 -50 0 -50 420 0 420 0 0 50 0 50 -52 3 c-61 4 -68 11 -77 92 -4
30 -16 116 -26 190 -10 74 -22 159 -25 187 -4 29 -11 55 -16 59 -5 3 -124 6
-265 7 -204 2 -258 -1 -262 -11z"></path>
<path d="M3095 368 c-3 -8 -5 -44 -3 -79 l3 -64 46 -3 c41 -3 50 1 68 24 26
33 27 74 3 104 -23 28 -108 41 -117 18z m93 -40 c18 -18 15 -42 -7 -62 -28
-25 -55 -17 -59 17 -2 16 -1 35 2 43 7 17 48 18 64 2z"></path>
<path d="M3462 367 c-5 -6 -17 -30 -27 -52 -9 -22 -21 -48 -27 -59 -16 -30 10
-47 29 -18 19 28 46 28 73 0 27 -30 43 -13 26 27 -8 17 -21 47 -30 67 -19 44
-30 52 -44 35z m23 -65 c0 -18 -20 -15 -23 4 -3 10 1 15 10 12 7 -3 13 -10 13
-16z"></path>
<path d="M3724 365 c-4 -8 -3 -28 0 -43 4 -15 10 -43 14 -62 10 -46 42 -49 56
-5 5 17 11 37 13 45 5 14 22 -16 37 -62 11 -37 35 -18 56 47 24 71 21 107 -5
85 -8 -7 -15 -26 -15 -42 0 -39 -20 -32 -35 13 -16 46 -35 43 -52 -8 -8 -24
-18 -43 -23 -43 -4 0 -10 18 -14 39 -7 44 -23 61 -32 36z"></path>
</g>
</svg>