 <svg version="1.0" xmlns="http://www.w3.org/2000/svg" width="700.000000pt" height="700.000000pt" viewBox="0 0 700.000000 700.000000" preserveAspectRatio="xMidYMid meet">
<metadata>
Created by potrace 1.12, written by Peter Selinger 2001-2015
</metadata>
<g transform="translate(0.000000,700.000000) scale(0.100000,-0.100000)" fill="#000000" stroke="none">
<path d="M1582 3998 l3 -203 40 0 40 0 5 54 5 53 92 64 c96 66 242 154 255
154 5 0 8 -115 8 -255 l0 -255 175 0 175 0 0 255 c0 163 4 255 10 255 13 0
206 -118 286 -175 62 -45 63 -46 66 -98 l3 -52 43 -3 42 -3 0 205 0 206 -625
0 -625 0 2 -202z"></path>
<path d="M2910 4166 c0 -34 1 -35 48 -38 l47 -3 5 -255 5 -255 175 0 175 0 3
251 c2 251 2 252 25 258 12 3 34 6 50 6 24 0 27 4 27 35 l0 35 -280 0 -280 0
0 -34z"></path>
<path d="M3712 4168 c3 -32 5 -33 55 -38 28 -3 54 -8 56 -10 3 -3 -12 -113
-34 -245 -21 -132 -39 -246 -39 -252 0 -10 23 -13 84 -13 67 0 85 3 90 16 3 9
7 68 7 132 2 194 3 194 88 11 l74 -159 192 0 c105 0 194 3 197 6 3 3 -58 135
-135 295 l-141 289 -249 0 -248 0 3 -32z"></path>
<path d="M4711 3916 c-66 -157 -121 -290 -121 -296 0 -7 20 -10 56 -8 l56 3
68 155 c39 88 71 149 74 140 3 -8 11 -78 18 -155 l13 -140 178 -3 c138 -2 177
0 177 10 0 7 -9 78 -20 158 -38 280 -44 329 -38 335 3 4 28 9 54 13 45 7 48 9
48 37 l0 30 -221 3 -220 2 -122 -284z"></path>
<path d="M1185 3499 c-9 -14 2 -24 28 -24 20 0 22 -6 27 -70 4 -53 9 -70 20
-70 12 0 16 16 18 73 3 69 4 73 25 70 14 -2 23 3 25 15 3 15 -5 17 -67 17 -39
0 -73 -5 -76 -11z"></path>
<path d="M1487 3504 c-3 -4 10 -29 29 -58 21 -32 34 -63 34 -83 0 -23 5 -33
15 -33 10 0 15 10 15 28 0 15 15 52 34 82 19 30 32 58 30 62 -10 16 -25 7 -45
-27 -12 -19 -25 -35 -30 -35 -5 0 -19 16 -30 35 -20 33 -38 43 -52 29z"></path>
<path d="M1827 3503 c-4 -3 -7 -44 -7 -90 0 -75 2 -84 18 -81 13 3 16 12 14
40 -5 50 12 55 38 11 l22 -38 33 40 34 39 3 -44 c2 -32 7 -45 18 -45 12 0 15
16 15 84 0 103 -13 112 -56 42 -18 -28 -36 -51 -41 -51 -4 0 -22 23 -39 50
-30 49 -39 57 -52 43z"></path>
<path d="M2230 3482 c-86 -86 34 -208 127 -128 22 19 28 32 28 65 0 52 -27 81
-83 88 -36 5 -45 2 -72 -25z m98 -18 c41 -29 18 -104 -33 -104 -35 0 -58 24
-58 60 0 53 46 76 91 44z"></path>
<path d="M2570 3430 c0 -44 0 -83 0 -87 0 -5 8 -8 17 -8 12 0 17 8 18 30 0 27
4 30 38 35 21 3 38 10 38 15 0 6 -17 12 -38 15 -30 4 -38 9 -38 25 0 17 7 20
45 20 33 0 45 4 45 15 0 11 -15 16 -62 18 l-63 3 0 -81z"></path>
<path d="M2875 3497 c-3 -7 -5 -47 -3 -88 3 -62 6 -74 21 -77 16 -3 18 4 15
84 -2 59 -7 89 -15 92 -7 2 -15 -3 -18 -11z"></path>
<path d="M3110 3421 c0 -75 3 -91 15 -91 13 0 15 14 13 87 -2 58 -7 88 -15 91
-10 3 -13 -19 -13 -87z"></path>
<path d="M3555 3498 c-3 -8 -5 -48 -3 -89 2 -58 6 -74 18 -74 8 0 16 10 18 21
2 17 12 23 43 27 52 7 69 22 69 62 0 43 -20 58 -85 63 -42 3 -56 1 -60 -10z
m106 -40 c16 -26 -32 -61 -60 -43 -12 7 -15 48 -4 59 10 9 56 -2 64 -16z"></path>
<path d="M3885 3497 c-3 -7 -5 -47 -3 -88 3 -62 6 -74 21 -77 16 -3 18 4 15
84 -2 59 -7 89 -15 92 -7 2 -15 -3 -18 -11z"></path>
<path d="M4114 3497 c-3 -8 -4 -47 -2 -88 l3 -74 63 -3 c51 -2 62 0 62 13 0
11 -11 15 -46 15 -41 0 -45 2 -42 23 2 18 9 22 38 22 50 0 48 29 -2 33 -30 3
-38 7 -38 23 0 18 6 20 43 17 32 -2 42 1 42 12 0 21 -113 27 -121 7z"></path>
<path d="M4416 3501 c-10 -15 59 -166 78 -169 12 -3 27 18 56 80 21 46 35 87
30 92 -14 14 -27 -1 -51 -59 -12 -30 -26 -55 -30 -55 -3 0 -18 27 -32 60 -25
57 -39 71 -51 51z"></path>
<path d="M4767 3503 c-4 -3 -7 -44 -7 -90 0 -67 3 -83 15 -83 11 0 15 12 15
50 0 28 4 50 9 50 5 0 26 -23 47 -50 56 -73 69 -65 69 40 0 69 -3 85 -15 85
-11 0 -16 -13 -18 -47 -2 -27 -6 -48 -10 -48 -5 0 -25 23 -46 50 -38 50 -47
56 -59 43z"></path>
<path d="M5117 3504 c-4 -4 -7 -45 -7 -91 0 -75 2 -84 18 -81 15 3 17 15 17
87 0 78 -9 104 -28 85z"></path>
<path d="M5340 3430 c0 -44 -1 -83 -2 -87 -2 -5 27 -9 65 -11 55 -2 67 0 67
13 0 11 -11 15 -44 15 -25 0 -48 5 -52 11 -10 17 14 34 49 34 48 0 43 29 -6
35 -21 3 -38 8 -37 13 0 4 0 12 0 18 0 6 17 9 43 7 32 -2 42 0 42 12 0 11 -15
16 -62 18 l-63 3 0 -81z"></path>
<path d="M5645 3498 c-8 -21 62 -168 80 -168 10 0 29 29 50 76 35 78 42 104
26 104 -13 0 -26 -20 -47 -72 -10 -27 -23 -47 -28 -45 -4 1 -18 27 -31 57 -24
56 -41 72 -50 48z"></path>
<path d="M2028 3048 l-3 -183 -80 -5 -80 -5 0 -35 0 -35 340 0 340 0 3 37 3
37 -83 3 -83 3 -3 183 -2 182 -175 0 -175 0 -2 -182z"></path>
<path d="M3015 3218 c-3 -7 -6 -89 -7 -183 l-3 -170 -48 -3 -48 -3 3 -37 3
-37 275 0 275 0 3 37 3 37 -48 3 -48 3 -5 180 -5 180 -173 3 c-132 2 -174 0
-177 -10z"></path>
<path d="M3685 3218 c-2 -7 -16 -87 -30 -178 -15 -91 -29 -168 -33 -172 -4 -4
-23 -8 -42 -10 -33 -3 -35 -5 -35 -38 l0 -35 230 0 230 0 0 35 c0 35 0 35 -50
40 l-50 5 3 183 3 182 -111 0 c-80 0 -112 -4 -115 -12z"></path>
<path d="M4280 3221 c0 -6 21 -53 47 -105 44 -92 48 -96 78 -96 31 0 34 4 74
93 23 50 41 98 41 105 0 9 -31 12 -120 12 -68 0 -120 -4 -120 -9z"></path>
<path d="M4910 3223 c0 -5 7 -81 16 -170 9 -89 14 -169 11 -178 -5 -11 -21
-15 -57 -15 l-51 0 3 -37 3 -38 290 0 290 0 0 35 c0 33 -2 35 -37 38 -21 2
-38 4 -39 5 0 1 -13 83 -27 182 l-27 180 -187 3 c-104 1 -188 -1 -188 -5z"></path>
<path d="M3215 2618 c-3 -7 -3 -31 -2 -53 3 -38 4 -40 39 -43 30 -3 40 2 53
21 18 28 8 70 -20 81 -27 10 -65 7 -70 -6z m75 -42 c0 -18 -27 -39 -40 -31
-11 7 -14 48 -4 58 10 9 44 -12 44 -27z"></path>
<path d="M3466 2608 c-23 -36 -40 -78 -34 -83 3 -3 17 0 31 6 21 9 30 9 42 -1
25 -21 28 -5 10 45 -22 56 -30 62 -49 33z"></path>
<path d="M3705 2601 c-7 -34 -25 -42 -25 -12 0 20 -17 37 -27 28 -3 -3 1 -25
9 -49 16 -46 41 -57 46 -20 4 29 18 28 26 -3 10 -40 31 -29 47 25 17 54 7 79
-13 36 -14 -32 -26 -33 -30 -4 -5 33 -25 33 -33 -1z"></path>
</g>
</svg>